<?xml version="1.0" standalone="no"?><!-- Generator: Gravit.io --><svg xmlns="http://www.w3.org/2000/svg" xmlns:xlink="http://www.w3.org/1999/xlink" style="isolation:isolate" viewBox="0 0 300 112" width="300" height="112"><path d=" M 188.85 16.135 L 188.85 86.865 L 188.85 86.865 Q 188.85 93.685 180.545 93.685 L 180.545 93.685 L 180.545 93.685 Q 172.24 93.685 172.24 86.645 L 172.24 86.645 L 172.24 16.135 L 176.09 16.135 L 176.09 86.315 L 176.09 86.315 Q 176.09 89.505 176.86 90.825 L 176.86 90.825 L 176.86 90.825 Q 177.63 92.145 180.27 92.145 L 180.27 92.145 L 180.27 92.145 Q 182.91 92.145 183.955 90.935 L 183.955 90.935 L 183.955 90.935 Q 185 89.725 185 86.535 L 185 86.535 L 185 16.135 L 188.85 16.135 Z  M 195.97 53.205 L 195.97 44.405 L 195.97 44.405 Q 195.97 37.475 204.275 37.475 L 204.275 37.475 L 204.275 37.475 Q 212.58 37.475 212.58 44.735 L 212.58 44.735 L 212.58 51.665 L 208.73 51.665 L 208.73 44.845 L 208.73 44.845 Q 208.73 41.655 207.85 40.17 L 207.85 40.17 L 207.85 40.17 Q 206.97 38.685 204.33 38.685 L 204.33 38.685 L 204.33 38.685 Q 201.69 38.685 200.755 40.17 L 200.755 40.17 L 200.755 40.17 Q 199.82 41.655 199.82 44.845 L 199.82 44.845 L 199.82 52.765 L 199.82 52.765 Q 199.82 56.065 200.92 57.935 L 200.92 57.935 L 200.92 57.935 Q 202.46 60.355 204.715 62.5 L 204.715 62.5 L 204.715 62.5 Q 206.97 64.645 208.18 66.02 L 208.18 66.02 L 208.18 66.02 Q 209.39 67.395 210.38 69.155 L 210.38 69.155 L 210.38 69.155 Q 212.58 73.115 212.58 77.845 L 212.58 77.845 L 212.58 86.755 L 212.58 86.755 Q 212.58 93.685 204.275 93.685 L 204.275 93.685 L 204.275 93.685 Q 195.97 93.685 195.97 86.425 L 195.97 86.425 L 195.97 78.835 L 199.82 78.835 L 199.82 86.315 L 199.82 86.315 Q 199.82 89.505 200.7 90.99 L 200.7 90.99 L 200.7 90.99 Q 201.58 92.475 204.22 92.475 L 204.22 92.475 L 204.22 92.475 Q 206.86 92.475 207.795 90.99 L 207.795 90.99 L 207.795 90.99 Q 208.73 89.505 208.73 86.315 L 208.73 86.315 L 208.73 78.615 L 208.73 78.615 Q 208.73 71.685 205.32 67.615 L 205.32 67.615 L 205.32 67.615 Q 204.22 66.295 202.185 64.425 L 202.185 64.425 L 202.185 64.425 Q 200.15 62.555 198.06 59.86 L 198.06 59.86 L 198.06 59.86 Q 195.97 57.165 195.97 53.205 L 195.97 53.205 Z  M 223.33 93.135 L 219.48 93.135 L 219.48 10.635 L 223.33 10.635 L 223.33 38.025 L 223.33 38.025 Q 225.2 37.255 228.06 37.255 L 228.06 37.255 L 228.06 37.255 Q 235.98 37.255 236.09 43.965 L 236.09 43.965 L 236.09 93.135 L 232.24 93.135 L 232.24 44.735 L 232.24 44.735 Q 232.24 41.435 231.47 40.17 L 231.47 40.17 L 231.47 40.17 Q 230.7 38.905 228.06 38.905 L 228.06 38.905 L 228.06 38.905 Q 225.42 38.905 224.375 40.06 L 224.375 40.06 L 224.375 40.06 Q 223.33 41.215 223.33 44.405 L 223.33 44.405 L 223.33 93.135 Z  M 243.1 86.425 L 243.1 44.295 L 243.1 44.295 Q 243.1 37.475 251.405 37.475 L 251.405 37.475 L 251.405 37.475 Q 259.71 37.475 259.71 44.515 L 259.71 44.515 L 259.71 66.075 L 259.71 66.075 Q 259.6 69.705 257.4 71.245 L 257.4 71.245 L 257.4 71.245 Q 255.2 72.785 251.9 72.785 L 251.9 72.785 L 251.9 72.785 Q 248.6 72.785 246.95 72.125 L 246.95 72.125 L 246.95 86.315 L 246.95 86.315 Q 246.95 89.505 247.83 90.99 L 247.83 90.99 L 247.83 90.99 Q 248.71 92.475 251.35 92.475 L 251.35 92.475 L 251.35 92.475 Q 253.99 92.475 254.925 90.99 L 254.925 90.99 L 254.925 90.99 Q 255.86 89.505 255.86 86.315 L 255.86 86.315 L 255.86 78.835 L 259.71 78.835 L 259.71 86.755 L 259.71 86.755 Q 259.71 93.685 251.405 93.685 L 251.405 93.685 L 251.405 93.685 Q 243.1 93.685 243.1 86.425 L 243.1 86.425 Z  M 246.95 44.625 L 246.95 65.305 L 246.95 65.305 Q 246.95 68.715 247.665 69.925 L 247.665 69.925 L 247.665 69.925 Q 248.38 71.135 251.075 71.135 L 251.075 71.135 L 251.075 71.135 Q 253.77 71.135 254.815 69.98 L 254.815 69.98 L 254.815 69.98 Q 255.86 68.825 255.86 65.635 L 255.86 65.635 L 255.86 44.845 L 255.86 44.845 Q 255.86 41.655 255.09 40.335 L 255.09 40.335 L 255.09 40.335 Q 254.32 39.015 251.68 39.015 L 251.68 39.015 L 251.68 39.015 Q 249.04 39.015 247.995 40.225 L 247.995 40.225 L 247.995 40.225 Q 246.95 41.435 246.95 44.625 L 246.95 44.625 Z  M 266.72 38.135 L 270.46 38.135 L 270.46 38.245 L 270.46 38.245 Q 272.33 37.475 275.19 37.475 L 275.19 37.475 L 275.19 37.475 Q 283.33 37.475 283.33 44.735 L 283.33 44.735 L 283.33 52.325 L 279.48 52.325 L 279.48 44.845 L 279.48 44.845 Q 279.48 41.435 278.6 40.06 L 278.6 40.06 L 278.6 40.06 Q 277.72 38.685 275.08 38.685 L 275.08 38.685 L 275.08 38.685 Q 272.44 38.685 271.505 40.17 L 271.505 40.17 L 271.505 40.17 Q 270.57 41.655 270.57 44.845 L 270.57 44.845 L 270.57 93.135 L 266.72 93.135 L 266.72 38.135 Z  M 140.32 16.135 L 141.86 16.135 L 133.28 93.135 L 131.74 93.135 L 127.12 45.945 L 121.84 93.135 L 120.3 93.135 L 112.71 16.135 L 116.56 16.135 L 122.06 77.515 L 127.56 28.235 L 129.1 28.235 L 133.5 77.405 L 140.32 16.135 Z  M 151.73 93.135 L 147.88 93.135 L 147.88 86.095 L 151.73 86.095 L 151.73 93.135 Z  M 17.6 93.135 L 16.06 93.135 L 24.64 16.135 L 26.18 16.135 L 33.77 93.135 L 29.92 93.135 L 27.61 67.835 L 20.35 67.835 L 17.6 93.135 Z  M 24.42 31.975 L 20.57 66.185 L 27.5 66.185 L 24.42 31.975 Z  M 44.3 93.135 L 40.45 93.135 L 40.45 10.635 L 44.3 10.635 L 44.3 93.135 Z  M 51.31 86.425 L 51.31 44.295 L 51.31 44.295 Q 51.31 37.475 59.615 37.475 L 59.615 37.475 L 59.615 37.475 Q 67.92 37.475 67.92 44.515 L 67.92 44.515 L 67.92 66.075 L 67.92 66.075 Q 67.81 69.705 65.61 71.245 L 65.61 71.245 L 65.61 71.245 Q 63.41 72.785 60.11 72.785 L 60.11 72.785 L 60.11 72.785 Q 56.81 72.785 55.16 72.125 L 55.16 72.125 L 55.16 86.315 L 55.16 86.315 Q 55.16 89.505 56.04 90.99 L 56.04 90.99 L 56.04 90.99 Q 56.92 92.475 59.56 92.475 L 59.56 92.475 L 59.56 92.475 Q 62.2 92.475 63.135 90.99 L 63.135 90.99 L 63.135 90.99 Q 64.07 89.505 64.07 86.315 L 64.07 86.315 L 64.07 78.835 L 67.92 78.835 L 67.92 86.755 L 67.92 86.755 Q 67.92 93.685 59.615 93.685 L 59.615 93.685 L 59.615 93.685 Q 51.31 93.685 51.31 86.425 L 51.31 86.425 Z  M 55.16 44.625 L 55.16 65.305 L 55.16 65.305 Q 55.16 68.715 55.875 69.925 L 55.875 69.925 L 55.875 69.925 Q 56.59 71.135 59.285 71.135 L 59.285 71.135 L 59.285 71.135 Q 61.98 71.135 63.025 69.98 L 63.025 69.98 L 63.025 69.98 Q 64.07 68.825 64.07 65.635 L 64.07 65.635 L 64.07 44.845 L 64.07 44.845 Q 64.07 41.655 63.3 40.335 L 63.3 40.335 L 63.3 40.335 Q 62.53 39.015 59.89 39.015 L 59.89 39.015 L 59.89 39.015 Q 57.25 39.015 56.205 40.225 L 56.205 40.225 L 56.205 40.225 Q 55.16 41.435 55.16 44.625 L 55.16 44.625 Z  M 92.2 93.135 L 88.35 93.135 L 82.19 67.615 L 76.25 93.135 L 74.49 93.135 L 81.31 63.875 L 75.26 38.135 L 79.11 38.135 L 84.28 60.025 L 89.45 38.135 L 91.1 38.135 L 85.16 63.655 L 92.2 93.135 Z " fill-rule="evenodd" fill="rgb(0,0,0)"/></svg>